<svg id="Layer_1" data-name="Layer 1" xmlns="http://www.w3.org/2000/svg" viewBox="0 0 345.02 305.96"><defs><style>.cls-1{fill:#fff;fill-rule:evenodd;}</style></defs><path class="cls-1" d="M137.29,195.72c-33.5-70.58,54.94-137,114.06-85.76a71.8,71.8,0,0,1,24.5,51.6c.83,28.59-15.45,56.39-41.47,68.74s-57.77,7.49-79.49-11.32a70.61,70.61,0,0,1-17.6-23.26Zm-4.73,37.52c1.41,1.35,2.86,2.66,4.38,3.94a105.25,105.25,0,0,0,33.47,19.21c20.27,7,56,6,75-2.94a93.71,93.71,0,0,0,30.71-23.07A100.37,100.37,0,0,0,295.4,197.7a103.8,103.8,0,0,0,5.9-37.83,92.57,92.57,0,0,0-9.2-37.65c-5.62-11.84-13-23-22.83-31.77a95.58,95.58,0,0,0-32.71-19.28c-42.41-14.61-91.49,3-116.16,40.17-24.19,38.9-21.59,88.22,12.16,121.9Z"/><path class="cls-1" d="M51,45.11a12.84,12.84,0,0,0-3.34,2,15.52,15.52,0,0,0-2.83,4.65,17.51,17.51,0,0,0-1.15,5.81,6,6,0,0,0,.46,2.82L86.1,148.78c.64-9.81,6.8-29.83,11.25-37.2L68.78,51.39A14.37,14.37,0,0,0,65.47,47a10.22,10.22,0,0,0-3.91-2.34,19.45,19.45,0,0,0-6.38-1A14,14,0,0,0,51,45.11Z"/><path class="cls-1" d="M117.09,51.33c1.75-1.3,3.53-2.55,5.35-3.77A147.77,147.77,0,0,1,161.63,29a149.54,149.54,0,0,1,43.27-6.41,136.89,136.89,0,0,1,93.45,35.31c14.24,12.71,25.06,28.46,33.22,45.64A136.25,136.25,0,0,1,345,158.75a147.51,147.51,0,0,1-8.41,53.62,144.19,144.19,0,0,1-27.64,46.83,137.55,137.55,0,0,1-44.81,33.72,133.9,133.9,0,0,1-54.37,13,150.82,150.82,0,0,1-53.66-8.25,149.12,149.12,0,0,1-47.3-27.08,132.81,132.81,0,0,1-34.53-44.92L4.7,79.15A49.33,49.33,0,0,1,0,56,61.37,61.37,0,0,1,4.13,36,59.15,59.15,0,0,1,14.76,18.42,51.87,51.87,0,0,1,32.4,5.61C39.54,2.25,46.64.11,54.59,0A63.1,63.1,0,0,1,75.1,3.11,54.08,54.08,0,0,1,95.15,14.94a58.14,58.14,0,0,1,13.09,17.74l8.85,18.65Zm-74-23.08A24.23,24.23,0,0,1,54.93,25a38.26,38.26,0,0,1,12.41,1.89A28.74,28.74,0,0,1,78.15,33.3a32.9,32.9,0,0,1,7.48,10.11L109.51,93.7a111.67,111.67,0,0,1,26.82-25.32,122.84,122.84,0,0,1,32.59-15.47A124.31,124.31,0,0,1,205,47.58a122.91,122.91,0,0,1,37.67,6,121.88,121.88,0,0,1,39.05,23q16.26,14.52,27.27,37.7a111.15,111.15,0,0,1,11,45.16A122.15,122.15,0,0,1,313,204a118.66,118.66,0,0,1-22.88,38.73,112.28,112.28,0,0,1-36.72,27.62,108.78,108.78,0,0,1-44.29,10.57A125.48,125.48,0,0,1,164.29,274a123.74,123.74,0,0,1-39.38-22.57,107.39,107.39,0,0,1-28.06-36.52L27.3,68.42A24.31,24.31,0,0,1,25.05,56.9,36.25,36.25,0,0,1,27.45,45a34.21,34.21,0,0,1,6.17-10.16,23.31,23.31,0,0,1,9.44-6.63Z"/><path class="cls-1" d="M154.14,187.73a51.89,51.89,0,0,0,13,17.16,53.73,53.73,0,0,0,18.08,10.44,59.65,59.65,0,0,0,20.51,3.12,50,50,0,0,0,20.68-5A50.66,50.66,0,0,0,243.1,200.7a58.94,58.94,0,0,0,10.76-18,53.78,53.78,0,0,0,3.34-20.61c0-1.38-.14-2.76-.28-4.13-.7-6.3-5.23-4.91-9.18-3L240,158.62c-5.46,3.26-7.33,3.22-8.06,9a27.73,27.73,0,0,1-1.55,6.28,33.88,33.88,0,0,1-6.24,10.37,26.29,26.29,0,0,1-19,9.12,34.92,34.92,0,0,1-12-1.82,28.83,28.83,0,0,1-9.71-5.65,26.82,26.82,0,0,1-6.74-9,24.77,24.77,0,0,1-2.27-10,31.63,31.63,0,0,1,1.79-11.7,36.52,36.52,0,0,1,6.16-10.88,23,23,0,0,1,8.17-6.3,25.78,25.78,0,0,1,10.47-2.48,34.23,34.23,0,0,1,12,1.72,29,29,0,0,1,9.72,5.65c.58.51,1.14,1,1.67,1.58,2.76,2.84,5.72,2.21,8.35.7l10-4.73c1.93-1,6.48-4.24,3.76-8.36a36.8,36.8,0,0,0-7.36-8.11,53.67,53.67,0,0,0-18.09-10.44,58.8,58.8,0,0,0-20.72-3,50.55,50.55,0,0,0-20.46,4.89A47.82,47.82,0,0,0,163,128.58a61.46,61.46,0,0,0-10.34,18.3,56.75,56.75,0,0,0-3.24,20.84,49.58,49.58,0,0,0,4.68,20Z"/></svg>